<svg xmlns="http://www.w3.org/2000/svg" viewBox="0 0 512 512">
  <defs>
    <linearGradient id="bg" x1="0%" y1="0%" x2="100%" y2="100%">
      <stop offset="0%" style="stop-color:#f97316"/>
      <stop offset="100%" style="stop-color:#ec4899"/>
    </linearGradient>
  </defs>
  <rect width="512" height="512" rx="112" fill="url(#bg)"/>
  <g opacity="0.06">
    <circle cx="80" cy="80" r="2.5" fill="#fff"/><circle cx="160" cy="80" r="2.5" fill="#fff"/>
    <circle cx="240" cy="80" r="2.5" fill="#fff"/><circle cx="320" cy="80" r="2.5" fill="#fff"/>
    <circle cx="400" cy="80" r="2.5" fill="#fff"/><circle cx="80" cy="400" r="2.5" fill="#fff"/>
    <circle cx="160" cy="400" r="2.5" fill="#fff"/><circle cx="240" cy="400" r="2.5" fill="#fff"/>
    <circle cx="320" cy="400" r="2.5" fill="#fff"/><circle cx="400" cy="400" r="2.5" fill="#fff"/>
  </g>
  <path d="M100,400 C140,360 160,320 190,290 Q220,260 240,240 Q270,200 300,180 Q340,150 370,130"
        fill="none" stroke="#fff" stroke-width="8" stroke-linecap="round" stroke-linejoin="round" opacity="0.3" stroke-dasharray="2,14"/>
  <path d="M100,400 C140,360 160,320 190,290 Q220,260 240,240 Q270,200 300,180 Q340,150 370,130"
        fill="none" stroke="#fff" stroke-width="6" stroke-linecap="round" stroke-linejoin="round" opacity="0.7"/>
  <circle cx="100" cy="400" r="12" fill="#fff" opacity="0.35"/>
  <circle cx="100" cy="400" r="6" fill="#fff"/>
  <g transform="translate(370, 88)">
    <path d="M0,44 C-24,24 -32,4 -32,-10 A32,32 0 1,1 32,-10 C32,4 24,24 0,44 Z" fill="#fff"/>
    <circle cx="0" cy="-10" r="13" fill="#f97316"/>
  </g>
  <g transform="translate(170, 250)">
    <circle cx="0" cy="-46" r="18" fill="#fff"/>
    <rect x="-6" y="-28" width="12" height="44" rx="6" fill="#fff"/>
    <line x1="-4" y1="-20" x2="-28" y2="2" stroke="#fff" stroke-width="10" stroke-linecap="round"/>
    <line x1="4" y1="-20" x2="28" y2="-6" stroke="#fff" stroke-width="10" stroke-linecap="round"/>
    <line x1="-2" y1="14" x2="-22" y2="56" stroke="#fff" stroke-width="10" stroke-linecap="round"/>
    <line x1="2" y1="14" x2="22" y2="52" stroke="#fff" stroke-width="10" stroke-linecap="round"/>
  </g>
  <g opacity="0.2" fill="#fff">
    <ellipse cx="280" cy="200" rx="5" ry="8" transform="rotate(-30 280 200)"/>
    <ellipse cx="310" cy="175" rx="5" ry="8" transform="rotate(-35 310 175)"/>
    <ellipse cx="340" cy="152" rx="5" ry="8" transform="rotate(-40 340 152)"/>
  </g>
</svg>